# xmcd CD database file generated by OrangeCD 5.1
#
# Track frame offsets:
#	183
#	17218
#	28940
#	41288
#	52105
#	66123
#	77895
#	90883
#	101843
#	115883
#	129935
#	143468
#	157285
#	169153
#	183475
#
# Disc length: 2608 seconds
#
# Revision: 0
# Processed by: cddbd v1.5PL3 Copyright (c) Steve Scherf et al.
# Submitted via: OrangeCD 5.1
#
DISCID=c70a2e0f
DTITLE=Various Artist - Legendary Blues Classics, Volume 1
DYEAR=1900
DGENRE=Blues
TTITLE0=I Had a Talk with My Man
TTITLE1=Boogie Chillen'
TTITLE2=We're Gonna Make It
TTITLE3=Nothin' But The Blues
TTITLE4=Smoke Stack Lightning
TTITLE5=Don't Start Me Talkin'
TTITLE6=I'm You Hoochie Coochie Man
TTITLE7=Tell Mama
TTITLE8=Blues With a Feeling
TTITLE9=It Hurts Me Too
TTITLE10=Wang Dang Doodle
TTITLE11=Seachin' For a Woman
TTITLE12=Diggin' my Potatoes
TTITLE13=Reconsider Baby
TTITLE14=I'm Leaving You
EXTD=
EXTT0=
EXTT1=
EXTT2=
EXTT3=
EXTT4=
EXTT5=
EXTT6=
EXTT7=
EXTT8=
EXTT9=
EXTT10=
EXTT11=
EXTT12=
EXTT13=
EXTT14=
PLAYORDER=
